<svg height="140" viewBox="0 0 140 140" width="140" xmlns="http://www.w3.org/2000/svg"><g fill="#e84d37" transform="translate(30)"><path d="m40.148 7.01151913c5.0064-.00122913 9.9252 1.30209087 14.2636 3.77938087 4.3384 2.4773 7.9441 6.0416 10.4558 10.3358s3.8412 9.1675 3.8553 14.1316-1.2877 9.8447-3.775 14.1529c1.7254.2443 3.348.9602 4.6862 2.0674 1.3381 1.1073 2.3388 2.5621 2.89 4.2016.5512 1.6394.631 3.3987.2306 5.0806s-1.2652 3.2201-2.4976 4.442c-1.2324 1.222-2.7836 2.0796-4.4799 2.4766-1.6962.397-3.4704.3178-5.1238-.2287s-3.1207-1.5388-4.2374-2.8656c-1.1166-1.3269-1.8386-2.9358-2.085-4.6466-.3536.2003-.7172.3906-1.0809.5809-.5053 3.0845-2.1009 5.89-4.5013 7.9148-2.4005 2.0247-5.4492 3.1366-8.6006 3.1366-3.1515 0-6.2002-1.1119-8.6006-3.1366-2.4005-2.0248-3.9961-4.8303-4.5014-7.9148-.3636-.1903-.7273-.3806-1.0809-.5809-.2458 1.7124-.968 3.3229-2.0857 4.6509-1.1176 1.328-2.5864 2.3208-4.2415 2.867-1.6551.5463-3.431.6243-5.1284.2253-1.6973-.399-3.2489-1.2591-4.4806-2.4839-1.23166-1.2248-2.09471-2.7658-2.49223-4.4499-.39751-1.6842-.31377-3.4448.24183-5.0844s1.56106-3.0931 2.9035-4.1975c1.3425-1.1045 2.9689-1.816 4.6965-2.0548-2.486-4.306-3.7877-9.1838-3.775-14.1454.0128-4.9616 1.3396-9.8328 3.8477-14.1261s6.1095-7.8581 10.4437-10.3375c4.3343-2.47949 9.2492-3.78665 14.2531-3.79068087zm0-7.01151913c-5.6093-.00342913-11.1402 1.30642-16.1425 3.82295-5.0023 2.51654-9.3347 6.16864-12.6445 10.65905-3.30992 4.4905-5.50376 9.6924-6.40302 15.1824-.89925 5.49-.47852 11.113 1.22797 16.4113-3.30708 2.6144-5.469625 6.393-6.037284 10.5488-.567658 4.1559.503324 8.3687 2.989914 11.7612 2.4866 3.3924 6.19713 5.703 10.35892 6.4506 4.1617.7476 8.454-.1255 11.9828-2.4374 1.9054 1.9607 4.19 3.5203 6.7171 4.5855s5.245 1.6142 7.991 1.6142 5.4638-.549 7.9909-1.6142c2.5272-1.0652 4.8118-2.6248 6.7172-4.5855 3.5302 2.1782 7.762 2.9478 11.842 2.1537 4.08-.7942 7.7044-3.093 10.1422-6.4328 2.4377-3.3398 3.5074-7.472 2.9932-11.5631s-2.574-7.8366-5.7639-10.481c1.7065-5.2983 2.1272-10.9213 1.2279-16.4113-.8992-5.49-3.0931-10.6919-6.4029-15.1824-3.3099-4.49041-7.6423-8.14251-12.6446-10.65905-5.0023-2.51653-10.5331-3.82637913-16.1424-3.82295z"/><path d="m63.6143 78.9397c-2.7816-.0061-5.5323-.5789-8.0814-1.6828-.3738.3005-.7677.571-1.1617.8514l.5354.5209-3.9397 3.9064-1.687-1.6728c-.697.2705-1.4041.5109-2.1314.7212l2.384 2.3639-3.9296 3.9064-3.9599-3.9064 1.5658-1.5525c-1.0052.1271-2.0172.194-3.0305.2003-.983-.0022-1.9648-.0658-2.9396-.1903l1.5556 1.5425-3.9396 3.9064-3.9397-3.9064 2.3638-2.3438c-.7191-.2043-1.4272-.445-2.1214-.7212l-1.6971 1.6527-3.98-3.9064.4949-.4908c-.4141-.2905-.8182-.571-1.2122-.8815-2.5491 1.1039-5.2997 1.6767-8.0814 1.6828-.202 0-.404 0-.6061 0-.0766.5459-.0212 1.1021.1617 1.6226l20.5873 57.2137c.0226.069.0496.136.0808.201.0275.069.0613.136.101.2.0707.14.1515.27.2324.401l.0909.13c.1243.165.2629.319.4142.461l.101.08.3939.3.1819.1c.1398.077.285.144.4343.201h.1112l.404.1h.1617c.3741.067.7572.067 1.1313 0h.1718l.3939-.1h.1718c.1452-.059.2869-.126.4242-.201l.1819-.11c.1418-.082.2739-.179.3939-.29l.1112-.08c.1485-.144.2869-.298.4141-.461l.0808-.13c.0904-.128.1714-.262.2425-.401l.1818-.401 20.6278-57.2437c.1876-.5195.2431-1.0768.1616-1.6227-.2021 0-.3536.0301-.6061.0301zm-14.1424 15.6557-3.9397 3.9064-3.8892-3.9064 3.9296-3.9064zm-13.2232 5.3187 3.9397-3.9064 3.9396 3.9064-3.9396 3.9069zm7.8793 10.6479-3.9396 3.906-3.9397-3.906 3.9397-3.907zm-3.9396-25.1917 3.9396 3.9064-3.9396 3.8763-3.9397-3.9064zm-1.4244 9.2251-3.9396 3.9064-3.9397-3.9064 3.9397-3.9064zm-15.0617-14.1633.3839-.3806 3.9397 3.8964-2.2527 2.1936zm2.7881 7.8429 2.9295-2.9047 3.9296 3.9064-3.8892 3.8763-1.8082-1.7929zm2.8588 7.883.1111-.1102 3.9296 3.9064-1.9698 2.0028zm4.2124 11.769-1.4344-4.006 2.6567-2.625 3.9397 3.907-3.8992 3.976zm3.4649 9.636-1.889-5.228 3.5861 3.545zm3.0811 8.574-2.3335-6.49 2.3739-2.354 2.3133 2.293zm3.1113-8.634-1.5759-1.623 3.4447-3.425zm3.475-9.445-1.1415 1.121-3.9094-3.946 3.9296-3.897 2.5961 2.565zm2.2426-6.241-1.9093-1.9029 3.9397-3.9064v.0501zm3.7073-10.3067-1.7173 1.6427-3.9397-3.9064 3.9397-3.9064 2.8386 2.8747zm1.8991-5.3688-2.1921-2.1836 3.9397-3.9064.3233.3205z"/></g></svg>