<svg width="140" height="140" viewBox="0 0 140 140" xmlns="http://www.w3.org/2000/svg">
        <g transform="translate(30.000000, 0.000000)" fill="#E84D37">
            <path d="M40.148,7.01151913 C45.1544,7.01029 50.0732,8.31361 54.4116,10.7909 C58.75,13.2682 62.3557,16.8325 64.8674,21.1267 C67.3791,25.4209 68.7086,30.2942 68.7227,35.2583 C68.7368,40.2224 67.435,45.103 64.9477,49.4112 C66.6731,49.6555 68.2957,50.3714 69.6339,51.4786 C70.972,52.5859 71.9727,54.0407 72.5239,55.6802 C73.0751,57.3196 73.1549,59.0789 72.7545,60.7608 C72.3541,62.4427 71.4893,63.9809 70.2569,65.2028 C69.0245,66.4248 67.4733,67.2824 65.777,67.6794 C64.0808,68.0764 62.3066,67.9972 60.6532,67.4507 C58.9998,66.9042 57.5325,65.9119 56.4158,64.5851 C55.2992,63.2582 54.5772,61.6493 54.3308,59.9385 C53.9772,60.1388 53.6136,60.3291 53.2499,60.5194 C52.7446,63.6039 51.149,66.4094 48.7486,68.4342 C46.3481,70.4589 43.2994,71.5708 40.148,71.5708 C36.9965,71.5708 33.9478,70.4589 31.5474,68.4342 C29.1469,66.4094 27.5513,63.6039 27.046,60.5194 C26.6824,60.3291 26.3187,60.1388 25.9651,59.9385 C25.7193,61.6509 24.9971,63.2614 23.8794,64.5894 C22.7618,65.9174 21.293,66.9102 19.6379,67.4564 C17.9828,68.0027 16.2069,68.0807 14.5095,67.6817 C12.8122,67.2827 11.2606,66.4226 10.0289,65.1978 C8.79724,63.973 7.93419,62.432 7.53667,60.7479 C7.13916,59.0637 7.2229,57.3031 7.7785,55.6635 C8.3341,54.0239 9.33956,52.5704 10.682,51.466 C12.0245,50.3615 13.6509,49.65 15.3785,49.4112 C12.8925,45.1052 11.5908,40.2274 11.6035,35.2658 C11.6163,30.3042 12.9431,25.433 15.4512,21.1397 C17.9593,16.8464 21.5607,13.2816 25.8949,10.8022 C30.2292,8.32271 35.1441,7.01555 40.148,7.01151913 Z M40.148,-4.49063009e-12 C34.5387,-0.00342913 29.0078,1.30642 24.0055,3.82295 C19.0032,6.33949 14.6708,9.99159 11.361,14.482 C8.05108,18.9725 5.85724,24.1744 4.95798,29.6644 C4.05873,35.1544 4.47946,40.7774 6.18595,46.0757 C2.87887,48.6901 0.716325,52.4687 0.148666,56.6245 C-0.418992,60.7804 0.65199,64.9932 3.13858,68.3857 C5.62518,71.7781 9.33571,74.0887 13.4975,74.8363 C17.6592,75.5839 21.9515,74.7108 25.4803,72.3989 C27.3857,74.3596 29.6703,75.9192 32.1974,76.9844 C34.7245,78.0496 37.4424,78.5986 40.1884,78.5986 C42.9344,78.5986 45.6522,78.0496 48.1793,76.9844 C50.7065,75.9192 52.9911,74.3596 54.8965,72.3989 C58.4267,74.5771 62.6585,75.3467 66.7385,74.5526 C70.8185,73.7584 74.4429,71.4596 76.8807,68.1198 C79.3184,64.78 80.3881,60.6478 79.8739,56.5567 C79.3597,52.4656 77.2999,48.7201 74.11,46.0757 C75.8165,40.7774 76.2372,35.1544 75.3379,29.6644 C74.4387,24.1744 72.2448,18.9725 68.935,14.482 C65.6251,9.99159 61.2927,6.33949 56.2904,3.82295 C51.2881,1.30642 45.7573,-0.00342913 40.148,-4.49063009e-12 Z"></path>
            <path d="M63.6143,78.9397 C60.8327,78.9336 58.082,78.3608 55.5329,77.2569 C55.1591,77.5574 54.7652,77.8279 54.3712,78.1083 L54.9066,78.6292 L50.9669,82.5356 L49.2799,80.8628 C48.5829,81.1333 47.8758,81.3737 47.1485,81.584 L49.5325,83.9479 L45.6029,87.8543 L41.643,83.9479 L43.2088,82.3954 C42.2036,82.5225 41.1916,82.5894 40.1783,82.5957 C39.1953,82.5935 38.2135,82.5299 37.2387,82.4054 L38.7943,83.9479 L34.8547,87.8543 L30.915,83.9479 L33.2788,81.6041 C32.5597,81.3998 31.8516,81.1591 31.1574,80.8829 L29.4603,82.5356 L25.4803,78.6292 L25.9752,78.1384 C25.5611,77.8479 25.157,77.5674 24.763,77.2569 C22.2139,78.3608 19.4633,78.9336 16.6816,78.9397 C16.4796,78.9397 16.2776,78.9397 16.0755,78.9397 C15.9989,79.4856 16.0543,80.0418 16.2372,80.5623 L36.8245,137.776 C36.8471,137.845 36.8741,137.912 36.9053,137.977 C36.9328,138.046 36.9666,138.113 37.0063,138.177 C37.077,138.317 37.1578,138.447 37.2387,138.578 L37.3296,138.708 C37.4539,138.873 37.5925,139.027 37.7438,139.169 L37.8448,139.249 L38.2387,139.549 L38.4206,139.649 C38.5604,139.726 38.7056,139.793 38.8549,139.85 L38.9661,139.85 L39.3701,139.95 L39.5318,139.95 C39.9059,140.017 40.289,140.017 40.6631,139.95 L40.8349,139.95 L41.2288,139.85 L41.4006,139.85 C41.5458,139.791 41.6875,139.724 41.8248,139.649 L42.0067,139.539 C42.1485,139.457 42.2806,139.36 42.4006,139.249 L42.5118,139.169 C42.6603,139.025 42.7987,138.871 42.9259,138.708 L43.0067,138.578 C43.0971,138.45 43.1781,138.316 43.2492,138.177 L43.431,137.776 L64.0588,80.5323 C64.2464,80.0128 64.3019,79.4555 64.2204,78.9096 C64.0183,78.9096 63.8668,78.9397 63.6143,78.9397 Z M49.4719,94.5954 L45.5322,98.5018 L41.643,94.5954 L45.5726,90.689 L49.4719,94.5954 Z M36.2487,99.9141 L40.1884,96.0077 L44.128,99.9141 L40.1884,103.821 L36.2487,99.9141 Z M44.128,110.562 L40.1884,114.468 L36.2487,110.562 L40.1884,106.655 L44.128,110.562 Z M40.1884,85.3703 L44.128,89.2767 L40.1884,93.153 L36.2487,89.2466 L40.1884,85.3703 Z M38.764,94.5954 L34.8244,98.5018 L30.8847,94.5954 L34.8244,90.689 L38.764,94.5954 Z M23.7023,80.4321 L24.0862,80.0515 L28.0259,83.9479 L25.7732,86.1415 L23.7023,80.4321 Z M26.4904,88.275 L29.4199,85.3703 L33.3495,89.2767 L29.4603,93.153 L27.6521,91.3601 L26.4904,88.275 Z M29.3492,96.158 L29.4603,96.0478 L33.3899,99.9542 L31.4201,101.957 L29.3492,96.158 Z M33.5616,107.927 L32.1272,103.921 L34.7839,101.296 L38.7236,105.203 L34.8244,109.179 L33.5616,107.927 Z M37.0265,117.563 L35.1375,112.335 L38.7236,115.88 L37.0265,117.563 Z M40.1076,126.137 L37.7741,119.647 L40.148,117.293 L42.4613,119.586 L40.1076,126.137 Z M43.2189,117.503 L41.643,115.88 L45.0877,112.455 L43.2189,117.503 Z M46.6939,108.058 L45.5524,109.179 L41.643,105.233 L45.5726,101.336 L48.1687,103.901 L46.6939,108.058 Z M48.9365,101.817 L47.0272,99.9141 L50.9669,96.0077 L50.9669,96.0578 L48.9365,101.817 Z M52.6438,91.5103 L50.9265,93.153 L46.9868,89.2466 L50.9265,85.3402 L53.7651,88.2149 L52.6438,91.5103 Z M54.5429,86.1415 L52.3508,83.9579 L56.2905,80.0515 L56.6138,80.372 L54.5429,86.1415 Z"></path>
        </g>
</svg>
