<svg width="22" height="25" fill="none" xmlns="http://www.w3.org/2000/svg"><path opacity=".3" d="M11 22.727c-2.917 0-5.715-1.197-7.778-3.328C1.159 17.268 0 14.377 0 11.363v2.273c0 3.014 1.159 5.905 3.222 8.036C5.285 23.802 8.082 25 11 25c2.917 0 5.715-1.197 7.778-3.328C20.841 19.54 22 16.65 22 13.636v-2.272c0 3.013-1.159 5.904-3.222 8.035-2.063 2.13-4.86 3.328-7.778 3.328z" fill="#ABABAB"/><path d="M11 22.727c6.075 0 11-5.087 11-11.363S17.075 0 11 0 0 5.088 0 11.364c0 6.276 4.925 11.363 11 11.363z" fill="#fff"/><path d="M11 13.636c1.215 0 2.2-1.017 2.2-2.272 0-1.256-.985-2.273-2.2-2.273-1.215 0-2.2 1.017-2.2 2.273 0 1.255.985 2.272 2.2 2.272z" fill="#ABABAB"/></svg>