<svg xmlns="http://www.w3.org/2000/svg" xmlns:xlink="http://www.w3.org/1999/xlink"><symbol id="icon-bag-fill" viewBox="0 0 21 20">
<path d="M7.03359 20C8.14664 20 9.04894 19.1046 9.04894 18C9.04894 16.8954 8.14664 16 7.03359 16C5.92054 16 5.01823 16.8954 5.01823 18C5.01823 19.1046 5.92054 20 7.03359 20Z" fill="#343434"/>
<path d="M16.1027 20C17.2157 20 18.118 19.1046 18.118 18C18.118 16.8954 17.2157 16 16.1027 16C14.9896 16 14.0873 16.8954 14.0873 18C14.0873 19.1046 14.9896 20 16.1027 20Z" fill="#343434"/>
<path d="M5.70345 2L5.46161 0H0V2H3.66795L5.17946 15H19.2869L21 2H5.70345ZM17.5034 13H6.97313L5.96545 4H18.6924L17.5034 13Z" fill="#343434"/>
<path d="M5.93506 4.03003L6.97297 13H17.5032L18.6923 4.03003H5.93506Z" fill="#E84D37"/>
</symbol><symbol id="icon-bag-full" viewBox="0 0 21 20">
<path d="M7.03359 20C8.14664 20 9.04894 19.1046 9.04894 18C9.04894 16.8954 8.14664 16 7.03359 16C5.92054 16 5.01823 16.8954 5.01823 18C5.01823 19.1046 5.92054 20 7.03359 20Z"/>
<path d="M16.1027 20C17.2157 20 18.118 19.1046 18.118 18C18.118 16.8954 17.2157 16 16.1027 16C14.9896 16 14.0873 16.8954 14.0873 18C14.0873 19.1046 14.9896 20 16.1027 20Z"/>
<path d="M5.70345 2L5.46161 0H0V2H3.66795L5.17946 15H19.2869L21 2H5.70345ZM17.5034 13H6.97313L5.96545 4H18.6924L17.5034 13Z"/>
<path d="M5.93506 4.03003L6.97297 13H17.5032L18.6923 4.03003H5.93506Z" fill="#e84d37"/>
</symbol><symbol id="icon-bag" viewBox="0 0 21 20">
<path d="M7.03359 20C8.14664 20 9.04894 19.1046 9.04894 18C9.04894 16.8954 8.14664 16 7.03359 16C5.92054 16 5.01823 16.8954 5.01823 18C5.01823 19.1046 5.92054 20 7.03359 20Z"/>
<path d="M16.1027 20C17.2157 20 18.118 19.1046 18.118 18C18.118 16.8954 17.2157 16 16.1027 16C14.9896 16 14.0873 16.8954 14.0873 18C14.0873 19.1046 14.9896 20 16.1027 20Z"/>
<path d="M5.70345 2L5.46161 0H0V2H3.66795L5.17946 15H19.2869L21 2H5.70345ZM17.5034 13H6.97313L5.96545 4H18.6924L17.5034 13Z"/>
</symbol><symbol id="icon-bread-arrow" viewBox="0 0 6 6">
<path d="M2.15561 3L0 0.666562L0.615764 0L3.38714 3L0.615764 6L0 5.33344L2.15561 3Z" fill="white"/>
<path d="M4.76847 3L2.61286 0.666562L3.22863 0L6 3L3.22863 6L2.61286 5.33344L4.76847 3Z" fill="white"/>
</symbol><symbol id="icon-checkbox-actv" viewBox="0 0 24 20">
<path d="M6.68552 6.51304L4.09018 8.96522L11.2251 15.7391L24 3.62609L21.4047 1.16522L11.2251 10.8174L6.68552 6.51304Z" fill-opacity="0.8"/>
<path d="M19.2587 17.3913C19.2587 17.6219 19.1621 17.8431 18.9901 18.0062C18.8181 18.1693 18.5848 18.2609 18.3416 18.2609H2.75124C2.50802 18.2609 2.27475 18.1693 2.10277 18.0062C1.93078 17.8431 1.83416 17.6219 1.83416 17.3913V2.6087C1.83416 2.37807 1.93078 2.1569 2.10277 1.99382C2.27475 1.83074 2.50802 1.73913 2.75124 1.73913H18.2591L19.7081 0.356522C19.2932 0.126574 18.8221 0.00365521 18.3416 0H2.75124C2.02157 0 1.32178 0.274844 0.80582 0.764069C0.289862 1.25329 0 1.91683 0 2.6087V17.3913C0 18.0832 0.289862 18.7467 0.80582 19.2359C1.32178 19.7252 2.02157 20 2.75124 20H18.3416C19.0713 20 19.7711 19.7252 20.287 19.2359C20.803 18.7467 21.0929 18.0832 21.0929 17.3913V8.84348L19.2587 10.5826V17.3913Z" fill-opacity="0.8"/>
</symbol><symbol id="icon-checkbox" viewBox="0 0 20 20">
<path d="M17.3913 1.73913C17.6219 1.73913 17.8431 1.83074 18.0062 1.99382C18.1693 2.1569 18.2609 2.37807 18.2609 2.6087V17.3913C18.2609 17.6219 18.1693 17.8431 18.0062 18.0062C17.8431 18.1693 17.6219 18.2609 17.3913 18.2609H2.6087C2.37807 18.2609 2.1569 18.1693 1.99382 18.0062C1.83074 17.8431 1.73913 17.6219 1.73913 17.3913V2.6087C1.73913 2.37807 1.83074 2.1569 1.99382 1.99382C2.1569 1.83074 2.37807 1.73913 2.6087 1.73913H17.3913ZM17.3913 0H2.6087C1.91683 0 1.25329 0.274844 0.764069 0.764069C0.274844 1.25329 0 1.91683 0 2.6087L0 17.3913C0 18.0832 0.274844 18.7467 0.764069 19.2359C1.25329 19.7252 1.91683 20 2.6087 20H17.3913C18.0832 20 18.7467 19.7252 19.2359 19.2359C19.7252 18.7467 20 18.0832 20 17.3913V2.6087C20 1.91683 19.7252 1.25329 19.2359 0.764069C18.7467 0.274844 18.0832 0 17.3913 0V0Z" fill-opacity="0.8"/>
</symbol><symbol id="icon-cow" viewBox="0 0 49 49">
<circle cx="24.5" cy="24.5" r="23.5" stroke="#323232" stroke-width="2"/>
<path d="M32.0618 19.7151C32.6055 18.602 32.9158 17.3957 32.9747 16.1659C33.0337 14.9362 32.8401 13.7073 32.4051 12.5503C32.3591 12.4093 32.2713 12.2845 32.1525 12.1914C32.0338 12.0983 31.8895 12.041 31.7374 12.0265C31.5853 12.012 31.4322 12.0411 31.297 12.11C31.1618 12.179 31.0505 12.2848 30.977 12.4144C29.9858 14.1282 27.8553 16.8914 26.2944 17.0198H26.2242C25.5066 16.8833 24.778 16.8075 24.0468 16.7933C23.313 16.8073 22.5819 16.8831 21.8616 17.0198H21.807C20.2462 16.899 18.0844 14.1358 17.0855 12.422C17.0158 12.2848 16.9048 12.1714 16.767 12.0966C16.6293 12.0218 16.4713 11.9892 16.314 12.0031C16.1567 12.017 16.0075 12.0768 15.8861 12.1745C15.7646 12.2722 15.6767 12.4032 15.6339 12.5503C15.1914 13.7032 14.9904 14.9297 15.0427 16.1585C15.0949 17.3873 15.3994 18.5937 15.9382 19.7075C14.5803 19.8736 12.8556 20.2964 12.2312 21.3609C12.0798 21.6132 12 21.8997 12 22.1914C12 22.4831 12.0798 22.7696 12.2312 23.0219C12.41 23.3303 12.6761 23.583 12.9982 23.7502C13.3203 23.9174 13.6851 23.9921 14.0496 23.9656C14.6963 23.9528 15.3355 23.8302 15.9382 23.6032C15.9329 24.0106 15.9669 24.4175 16.0397 24.8187C16.3881 26.1599 16.8447 27.4726 17.4054 28.7446C17.5537 29.0995 17.7176 29.4996 17.8035 29.7412C17.5471 30.3472 17.346 30.9737 17.2025 31.6136C17.1655 32.0657 17.2238 32.5203 17.3741 32.95C17.5244 33.3796 17.7634 33.7751 18.0766 34.1125C19.2082 35.3658 21.1983 36 24.0234 36C26.8485 36 28.8464 35.3658 29.9702 34.1125C30.285 33.7761 30.525 33.3807 30.6754 32.9508C30.8257 32.521 30.8832 32.0658 30.8443 31.6136C30.7035 30.9739 30.505 30.3474 30.2512 29.7412C30.337 29.4996 30.5009 29.107 30.6414 28.7446C31.208 27.4748 31.6648 26.1616 32.0071 24.8187C32.0859 24.4182 32.1225 24.0109 32.1164 23.6032C32.6994 23.8235 33.317 23.946 33.9426 23.9656C34.3081 23.9917 34.6738 23.9169 34.9971 23.7498C35.3204 23.5828 35.588 23.3303 35.7688 23.0219C35.9202 22.7696 36 22.4831 36 22.1914C36 21.8997 35.9202 21.6132 35.7688 21.3609C35.1522 20.3341 33.4275 19.8812 32.0618 19.7151ZM31.3204 14.702C31.6018 16.2808 31.327 17.9053 30.5399 19.3149C30.3443 19.0852 30.1359 18.8659 29.9156 18.6581C29.4746 18.2659 28.9713 17.9447 28.425 17.7068C29.5506 16.8621 30.5283 15.8475 31.3204 14.702ZM16.7187 14.702C17.5029 15.8555 18.4785 16.8758 19.6062 17.7219C19.0609 17.9532 18.5617 18.2752 18.1312 18.6732C17.9078 18.8803 17.6967 19.0996 17.4991 19.33C16.7097 17.9157 16.4348 16.2857 16.7187 14.702ZM13.6438 22.2971C13.5736 22.1763 13.597 22.1386 13.6438 22.1084C13.8233 21.8139 14.7286 21.3534 16.4611 21.1797C16.3753 21.3987 16.2972 21.6176 16.227 21.8441C15.2125 22.3499 13.8545 22.667 13.6438 22.2971ZM30.4697 24.562C30.1428 25.8014 29.7202 27.0153 29.2054 28.1935C29.0016 28.6551 28.8219 29.1263 28.6669 29.6053L28.6201 29.8394L28.7059 30.0508C28.9528 30.6264 29.1537 31.2196 29.3069 31.825C29.3151 32.0631 29.2745 32.3004 29.1875 32.5233C29.1004 32.7462 28.9686 32.9502 28.7996 33.1235C28.2377 33.7502 26.9578 34.49 24.0312 34.49C21.1046 34.49 19.8247 33.7351 19.2628 33.1235C18.9259 32.7708 18.744 32.3051 18.7556 31.825C18.9119 31.2195 19.1154 30.6264 19.3643 30.0508L19.4501 29.8394L19.3955 29.6053C19.249 29.1221 19.0718 28.6481 18.8648 28.1859C18.341 27.0018 17.9131 25.7801 17.5849 24.5318C17.4361 23.6617 17.509 22.7695 17.7973 21.9327C18.0856 21.096 18.5807 20.3399 19.2394 19.7302C20.4179 18.5826 23.0869 18.3259 24.0156 18.3184C24.9443 18.3108 27.5587 18.575 28.8074 19.7453C29.4702 20.3492 29.9687 21.102 30.2586 21.937C30.5486 22.772 30.6211 23.6633 30.4697 24.5318V24.562ZM34.3718 22.2971C34.1689 22.6595 32.811 22.3499 31.8432 21.8517C31.7808 21.6252 31.7028 21.4062 31.6169 21.1797C33.3338 21.3534 34.2313 21.8139 34.403 22.1084C34.442 22.1386 34.4577 22.1763 34.3874 22.2971H34.3718Z" fill="#323232"/>
</symbol><symbol id="icon-cross" viewBox="0 0 11 11">
<path d="M11 0.712591L10.2874 0L5.5 4.78741L0.712591 0L0 0.712591L4.78741 5.5L0 10.2874L0.712591 11L5.5 6.21259L10.2874 11L11 10.2874L6.21259 5.5L11 0.712591Z"/>
</symbol><symbol id="icon-drop-arrow" viewBox="0 0 11 10">
<path d="M5.5 10L0 0H11" fill="#ECF1EE"/>
</symbol><symbol id="icon-fb" viewBox="0 0 32 32">
<path d="M16 0C12.8355 0 9.74207 0.938384 7.11088 2.69649C4.4797 4.45459 2.42894 6.95345 1.21793 9.87706C0.0069325 12.8007 -0.309921 16.0177 0.307443 19.1214C0.924806 22.2251 2.44866 25.0761 4.6863 27.3137C6.92394 29.5513 9.77487 31.0752 12.8786 31.6926C15.9823 32.3099 19.1993 31.9931 22.1229 30.7821C25.0466 29.5711 27.5454 27.5203 29.3035 24.8891C31.0616 22.2579 32 19.1645 32 16C32 11.7565 30.3143 7.68687 27.3137 4.68629C24.3131 1.68571 20.2435 0 16 0ZM20.06 9.45H17V12.9H20V16.34H17V25H14V16.34H11V12.9H14V9.45C13.9449 8.59575 14.2291 7.75426 14.7908 7.1083C15.3525 6.46234 16.1464 6.06407 17 6H20V9.45H20.06Z"/>
</symbol><symbol id="icon-heart" viewBox="0 0 15 13">
<path d="M10.8 0.00081161C10.1584 1.47209e-05 9.52561 0.149795 8.95246 0.438107C8.37931 0.726419 7.88182 1.14521 7.5 1.66081C7.11818 1.14521 6.62069 0.726419 6.04754 0.438107C5.47439 0.149795 4.84158 1.47209e-05 4.2 0.00081161C3.11401 -0.0207343 2.06346 0.387449 1.2769 1.13655C0.490337 1.88566 0.0314232 2.91507 0 4.00081C0 7.18081 7.5 13.0008 7.5 13.0008C7.5 13.0008 15 7.22081 15 4.00081C14.9686 2.91507 14.5097 1.88566 13.7231 1.13655C12.9365 0.387449 11.886 -0.0207343 10.8 0.00081161Z"/>
</symbol><symbol id="icon-hit" viewBox="0 0 34 27">
<path d="M6.94683 0.795067C6.05965 3.40361 5.28819 6.03161 4.56495 8.66935C4.00878 5.8766 3.69898 3.03958 3.6392 0.191599C3.6392 -0.226935 1.76842 0.0845322 1.77806 0.697734C1.90425 4.77979 2.46682 8.83616 3.45598 12.7963C2.30844 17.2542 1.2284 21.7315 0.00371283 26.1991C-0.0927193 26.5787 1.7202 26.3354 1.84557 25.8584C2.71346 22.6854 3.5042 19.5026 4.30459 16.3198C5.08569 19.4442 5.89572 22.5588 6.50324 25.7222C6.59967 26.2186 8.43188 25.7709 8.36438 25.216C7.53506 20.875 6.32002 16.6215 5.32677 12.3291C6.35859 8.34815 7.45792 4.38667 8.77904 0.464133C8.9044 0.103999 7.10112 0.318133 6.94683 0.795067Z" fill="#231F20"/>
<path d="M20.8427 1.31093C20.8909 0.337599 18.9912 0.532266 18.9141 1.42773C18.9093 1.50553 18.9093 1.58354 18.9141 1.66134C18.8686 1.7222 18.8358 1.79173 18.8176 1.86574C17.7347 6.17262 16.4377 10.4217 14.9314 14.597C14.3142 16.4755 13.8321 18.3832 13.321 20.291C13.1956 13.828 13.1956 7.39428 13.1667 0.970267C13.1667 -0.00306797 11.2381 0.220799 11.2381 1.10653C11.2381 9.21442 11.2381 17.3028 11.5274 25.4399C11.5024 25.5356 11.5024 25.6362 11.5274 25.7319L11.5852 26.1602C11.7009 26.9973 13.5139 26.6274 13.5139 25.8584C15.0857 21.7996 15.8957 17.4975 17.2651 13.3608C17.7665 11.8424 18.2776 10.3338 18.7694 8.82508C18.7019 14.6651 18.8273 20.5051 18.9719 26.3451C18.9719 27.3185 20.4955 27.0946 20.8138 26.4035L20.8716 26.2867C20.9247 26.2077 20.9531 26.1145 20.9531 26.0191C20.9531 25.9236 20.9247 25.8304 20.8716 25.7514C20.6305 17.517 20.457 9.41882 20.8427 1.31093Z" fill="#231F20"/>
<path d="M33.3017 0.201332C30.2651 0.490094 27.2091 0.50638 24.1696 0.249999C23.6874 0.249999 22.0095 1.07733 22.9835 1.126C23.9575 1.17467 25.0954 1.23307 26.1465 1.272C26.05 1.34987 25.9825 1.43747 25.9922 1.52507C26.2718 9.71082 24.97 18.3054 26.1754 26.4133C26.2333 26.8221 28.104 26.4133 28.0365 25.9071C26.8504 17.8966 28.104 9.36042 27.863 1.31093C29.5801 1.33484 31.2969 1.24706 33.0028 1.04813C33.8225 0.970267 34.6132 0.0455988 33.3017 0.201332Z" fill="#231F20"/>
</symbol><symbol id="icon-ice" viewBox="0 0 49 49">
<circle cx="24.5" cy="24.5" r="23.5" stroke="#323232" stroke-width="2"/>
<path d="M24 8C22.042 8.00227 20.1526 8.72169 18.689 10.0223C17.2254 11.3229 16.2889 13.1146 16.0565 15.0588H16V30.9459H32V15.0588H31.9435C31.7111 13.1146 30.7746 11.3229 29.311 10.0223C27.8474 8.72169 25.958 8.00227 24 8ZM30.1176 29.0635H17.8824V20.3859C18.0569 20.5964 18.2801 20.7612 18.5326 20.8662C18.7851 20.9711 19.0594 21.013 19.3318 20.9882C20.5459 20.9882 21.3365 20.3106 21.3365 19.4541V18.6353C21.3242 18.5223 21.3359 18.408 21.3708 18.2998C21.4057 18.1917 21.4629 18.0921 21.5388 18.0075C21.6147 17.9229 21.7076 17.8553 21.8114 17.809C21.9152 17.7627 22.0275 17.7387 22.1412 17.7387C22.2548 17.7387 22.3672 17.7627 22.471 17.809C22.5748 17.8553 22.6676 17.9229 22.7435 18.0075C22.8195 18.0921 22.8767 18.1917 22.9116 18.2998C22.9464 18.408 22.9581 18.5223 22.9459 18.6353V21.7318C22.949 21.9809 23.0049 22.2266 23.1101 22.4525C23.2152 22.6784 23.3671 22.8794 23.5557 23.0422C23.7443 23.205 23.9654 23.326 24.2042 23.397C24.443 23.468 24.6942 23.4875 24.9412 23.4541C25.1822 23.4885 25.4278 23.4721 25.6622 23.4062C25.8966 23.3402 26.1146 23.2261 26.3024 23.0711C26.4902 22.9161 26.6436 22.7236 26.7528 22.5059C26.8619 22.2883 26.9245 22.0503 26.9365 21.8071V19.7271C26.9213 19.5516 26.9428 19.375 26.9996 19.2083C27.0563 19.0417 27.1471 18.8886 27.2661 18.7589C27.3851 18.6291 27.5298 18.5255 27.691 18.4547C27.8521 18.3838 28.0263 18.3472 28.2024 18.3472C28.3784 18.3472 28.5526 18.3838 28.7137 18.4547C28.8749 18.5255 29.0196 18.6291 29.1386 18.7589C29.2576 18.8886 29.3484 19.0417 29.4052 19.2083C29.4619 19.375 29.4834 19.5516 29.4682 19.7271C29.4651 19.7552 29.4651 19.7836 29.4682 19.8118C29.492 19.994 29.5626 20.1669 29.6731 20.3137C29.7836 20.4605 29.9303 20.5762 30.0988 20.6494V29.12L30.1176 29.0635Z" fill="#323232"/>
<path d="M22.5882 38.5882C22.5882 38.9627 22.737 39.3217 23.0017 39.5865C23.2665 39.8513 23.6256 40 24 40C24.3744 40 24.7335 39.8513 24.9983 39.5865C25.263 39.3217 25.4118 38.9627 25.4118 38.5882V31.8871H22.5882V38.5882Z" fill="#323232"/>
</symbol><symbol id="icon-insta" viewBox="0 0 32 32">
<path d="M20.92 16C20.92 17.3155 20.3974 18.5771 19.4673 19.5072C18.5371 20.4374 17.2755 20.96 15.96 20.96C14.6445 20.96 13.3829 20.4374 12.4528 19.5072C11.5226 18.5771 11 17.3155 11 16C11.001 15.6158 11.048 15.233 11.14 14.86H10.24V21.7H21.64V14.86H20.74C20.8406 15.2325 20.901 15.6147 20.92 16Z"/>
<path d="M16 18.66C16.5252 18.656 17.0375 18.4967 17.4723 18.202C17.9071 17.9073 18.245 17.4905 18.4432 17.0042C18.6415 16.5178 18.6913 15.9836 18.5864 15.4689C18.4816 14.9542 18.2266 14.4821 17.8539 14.1121C17.4811 13.7421 17.0071 13.4908 16.4916 13.3897C15.9762 13.2887 15.4424 13.3425 14.9575 13.5445C14.4726 13.7464 14.0584 14.0873 13.7669 14.5243C13.4755 14.9613 13.32 15.4748 13.32 16C13.3213 16.3506 13.3917 16.6976 13.5271 17.021C13.6625 17.3444 13.8602 17.638 14.1091 17.8851C14.358 18.1321 14.653 18.3276 14.9775 18.4606C15.3019 18.5936 15.6494 18.6613 16 18.66Z"/>
<path d="M21.68 10.3H18.64V13.34H21.68V10.3Z"/>
<path d="M16 0C12.8355 0 9.74207 0.938384 7.11088 2.69649C4.4797 4.45459 2.42894 6.95345 1.21793 9.87706C0.0069325 12.8007 -0.309921 16.0177 0.307443 19.1214C0.924806 22.2251 2.44866 25.0761 4.6863 27.3137C6.92394 29.5513 9.77487 31.0752 12.8786 31.6926C15.9823 32.3099 19.1993 31.9931 22.1229 30.7821C25.0466 29.5711 27.5454 27.5203 29.3035 24.8891C31.0616 22.2579 32 19.1645 32 16C32 11.7565 30.3143 7.68687 27.3137 4.68629C24.3131 1.68571 20.2435 0 16 0ZM24 21.7C24.0027 22.0045 23.9444 22.3064 23.8285 22.588C23.7127 22.8696 23.5416 23.1251 23.3253 23.3395C23.1091 23.5539 22.8521 23.7228 22.5695 23.8362C22.2869 23.9497 21.9845 24.0054 21.68 24H10.28C9.97928 23.9987 9.68175 23.9382 9.40442 23.8219C9.12709 23.7056 8.87537 23.5358 8.66366 23.3222C8.45194 23.1086 8.28436 22.8554 8.17049 22.5771C8.05662 22.2988 7.99869 22.0007 8.00001 21.7V10.3C7.99869 9.99927 8.05662 9.70123 8.17049 9.42289C8.28436 9.14455 8.45194 8.89137 8.66366 8.67779C8.87537 8.46422 9.12709 8.29443 9.40442 8.17814C9.68175 8.06184 9.97928 8.00131 10.28 8H21.67C21.9749 7.99467 22.2778 8.0503 22.561 8.16362C22.8441 8.27694 23.1017 8.44568 23.3188 8.65992C23.5358 8.87416 23.7079 9.12959 23.8249 9.41123C23.9418 9.69287 24.0014 9.99504 24 10.3V21.7Z"/>
</symbol><symbol id="icon-leaflet" viewBox="0 0 49 49">
<circle cx="24.5" cy="24.5" r="23.5" stroke="#323232" stroke-width="2"/>
<path d="M31.9923 26.5968C31.6436 18.9394 24.8652 11.5239 24.5631 11.2015C24.5631 11.2015 24.5631 11.2015 24.5244 11.2015L24.4314 11.0967L24.3307 11.0322H23.8969L23.7497 11H23.7109L23.5715 11.0967L23.4863 11.1693C23.4863 11.1693 23.4863 11.1693 23.4475 11.1693C23.1454 11.5239 16.367 18.9475 16.0029 26.5968C15.999 26.6531 15.999 26.7097 16.0029 26.766C16.0029 27.0562 16.0029 27.3464 16.0029 27.6446C16.2973 35.9468 23.7497 37.978 23.8116 37.9941H24.0053C24.0697 38.002 24.1347 38.002 24.199 37.9941C24.2687 37.9941 31.7134 35.9065 32 27.6446C32 27.3464 32 27.0562 32 26.766C32 26.7096 31.9923 26.6532 31.9923 26.5968ZM18.048 23.7676C19.5954 25.1514 21.3449 26.2697 23.2306 27.0804V30.7478C21.3327 29.7725 18.4121 28.0396 17.5522 26.5162C17.622 25.586 17.7803 24.6653 18.0248 23.7676H18.048ZM19.5974 19.6568C20.6106 20.758 21.8538 21.6019 23.2306 22.1233V25.2991C21.4997 24.5389 19.9227 23.445 18.5826 22.0749C18.8773 21.2498 19.2161 20.4425 19.5974 19.6568ZM29.4436 22.0749C28.1041 23.4457 26.5268 24.5398 24.7955 25.2991V22.1233C26.1612 21.5976 27.3934 20.7539 28.3977 19.6568C28.7885 20.4313 29.1377 21.2278 29.4436 22.0427V22.0749ZM24.7955 20.4145V13.9662C25.8308 15.2873 26.7757 16.6825 27.6231 18.1415C26.8759 19.1299 25.8968 19.9015 24.78 20.3822L24.7955 20.4145ZM24.7955 30.764V27.0804C26.6884 26.2769 28.4458 25.164 30.0013 23.7837C30.2386 24.6848 30.3891 25.6082 30.4506 26.5403C29.5985 28.0396 26.678 29.7645 24.78 30.7317L24.7955 30.764ZM23.2461 20.4145C22.1242 19.9276 21.1441 19.1441 20.4031 18.1415C21.2489 16.6687 22.1938 15.26 23.2306 13.9259L23.2461 20.4145ZM17.7149 29.0632C19.4092 30.4484 21.2619 31.6099 23.2306 32.5211V36.0677C21.8222 35.4723 20.5796 34.5193 19.6161 33.2958C18.6526 32.0722 17.999 30.6171 17.7149 29.0632ZM24.78 36.0757V32.5131C26.7504 31.6084 28.6035 30.4493 30.2957 29.0632C30.0237 30.623 29.3747 32.0851 28.4097 33.3119C27.4448 34.5387 26.1957 35.4898 24.78 36.0757Z" fill="#323232"/>
</symbol><symbol id="icon-login" viewBox="0 0 20 19">
<path d="M6.04 14.88L12.96 9.5L6.04 4.13V7.04H0V11.96H6.04V14.88Z"/>
<path d="M18 0H5C4.46957 0 3.96086 0.210714 3.58579 0.585786C3.21071 0.960859 3 1.46957 3 2V4H5V2H18V17H5V15H3V17C3 17.5304 3.21071 18.0391 3.58579 18.4142C3.96086 18.7893 4.46957 19 5 19H18C18.5304 19 19.0391 18.7893 19.4142 18.4142C19.7893 18.0391 20 17.5304 20 17V2C20 1.46957 19.7893 0.960859 19.4142 0.585786C19.0391 0.210714 18.5304 0 18 0Z"/>
</symbol><symbol id="icon-logo-gllacy" viewBox="0 0 154 64">
<path d="M59.3411 43.1507C58.6031 43.0641 57.8564 43.196 57.1891 43.5308C57.1891 43.5308 54.1865 46.1093 39.3332 43.1404C28.4134 40.9523 22.7384 41.1783 22.7384 41.1783C22.7384 41.1783 24.57 28.3371 24.0695 24.7415C24.0466 24.4763 23.9242 24.2306 23.7281 24.0562C23.532 23.8818 23.2777 23.7923 23.0186 23.8067C21.9276 23.8067 21.267 24.2382 21.267 24.834C21.3606 27.2614 21.277 29.6926 21.0168 32.1072C20.5634 33.3829 19.7122 34.4692 18.5955 35.1974C17.4788 35.9256 16.1591 36.255 14.8413 36.1342C10.087 35.7952 9.08615 32.2819 8.66578 29.8883C8.2454 27.4947 8.00519 20.807 9.2563 18.0744C9.2563 18.0744 16.4227 18.3312 20.9267 14.3864C25.4308 10.4416 25.1505 7.03093 23.0186 5.57217C20.8867 4.11341 15.8922 4.37024 12.0588 7.96577C9.85781 9.93907 8.11968 12.3973 6.97426 15.1569C6.97426 15.1569 1.33923 13.9241 2.63038 7.88359C4.00161 1.57599 12.3991 2.31564 12.3991 2.31564C14.1507 2.66492 14.2307 2.82929 14.8113 2.23346C15.3918 1.63763 15.8122 0.0966821 13.0597 0.00422536C10.3072 -0.0882313 2.04986 1.30889 0.46845 6.93848C-1.22306 12.9276 1.89973 17.2114 6.09348 17.8792C6.09348 17.8792 3.80143 28.2549 6.63396 33.3914C7.41915 35.0146 8.65661 36.3617 10.1892 37.2616C11.7218 38.1615 13.4804 38.5736 15.2417 38.4457C16.8931 38.4457 19.8157 37.5005 20.6465 36.1342C20.6465 36.1342 20.2561 39.812 19.9258 41.1475C19.9258 41.1475 12.9796 41.055 10.8077 42.1748C7.11439 44.178 7.88508 48.8727 9.30635 50.5369C10.5074 51.9546 14.1207 52.7251 16.733 51.4615C18.2281 50.723 19.5196 49.6125 20.4898 48.2309C21.46 46.8494 22.0781 45.2407 22.288 43.5513C26.5142 43.3281 30.748 43.7998 34.8292 44.9485C41.0047 46.8387 49.6024 48.6056 52.1847 48.6056C54.767 48.6056 60.1918 47.8454 60.5221 45.6367C60.7023 44.178 60.1718 43.4178 59.3411 43.1507ZM15.8722 8.81843C15.8722 8.81843 19.1552 6.25019 20.7266 7.85277C21.0794 8.24335 21.2828 8.75163 21.2993 9.28397C21.3159 9.81632 21.1445 10.3369 20.8166 10.7497C20.156 11.6332 18.4145 14.4275 10.1471 15.8143C10.1471 15.8143 12.7494 11.1298 15.8722 8.81843ZM16.1425 48.7905C16.1425 48.7905 11.6084 51.328 11.138 47.8865C10.9562 47.1689 11.0201 46.409 11.3189 45.7339C11.6177 45.0588 12.1333 44.5096 12.7795 44.178C13.5702 43.7773 14.6511 43.274 19.3653 43.4486C19.3125 44.5462 18.9891 45.6121 18.4254 46.5464C17.8617 47.4807 17.0762 48.2528 16.1425 48.7905Z"/>
<path d="M73.6439 24.382C73.6439 26.7037 73.6439 29.0151 73.6439 31.3368C73.6439 31.3368 73.6439 31.419 73.6439 31.46C73.5647 32.3848 73.2694 33.2764 72.7831 34.0591C72.4757 34.6276 72.0763 35.1382 71.602 35.5692C71.0716 36.0418 70.7212 34.9837 70.5211 34.5419C69.1298 31.5525 69.8004 27.546 70.3409 24.4128C70.5911 22.9129 67.6285 23.3033 67.3983 24.6388C66.8584 27.3095 66.6732 30.043 66.8478 32.7647C66.5854 32.7859 66.3304 32.8637 66.0993 32.9929C65.8682 33.1221 65.6662 33.2999 65.5066 33.5146C64.9961 34.6344 63.5048 38.3532 61.6731 36.8636C60.352 35.8363 60.2118 33.0215 60.0717 31.4498C59.9123 29.2711 60.1916 27.082 60.8925 25.0189C60.8324 25.1935 62.0335 22.1116 62.5639 23.2622C62.7074 23.8105 62.7269 24.3852 62.6211 24.9424C62.5153 25.4997 62.2869 26.0248 61.9534 26.4777C60.382 27.6899 62.8242 28.1932 63.775 27.4536C65.5766 26.0667 66.7777 21.5877 63.705 21.0535C60.2319 20.4577 58.2601 24.0532 57.5294 26.9091C57.1421 28.5492 56.9738 30.2357 57.029 31.9223C56.5486 32.7853 54.9271 35.559 53.9763 36.0315C52.8553 36.6273 52.8753 35.7952 52.9153 35.261C52.9554 34.7269 53.4558 29.9705 53.726 26.7653C53.9629 25.4929 53.7871 24.1758 53.2256 23.0157C52.7952 22.1219 49.222 20.1187 46.0792 23.8786C44.3087 25.8622 43.2252 28.3898 42.9965 31.0697C42.7863 31.5011 42.5561 31.9634 42.2858 32.4668C40.7845 35.2919 38.8928 36.4835 38.2222 34.5214C37.5477 32.4775 37.2921 30.3125 37.4715 28.1624C39.8038 24.4569 41.5156 20.377 42.536 16.0917C44.0374 9.2499 43.7571 5.84954 42.9464 5.27426C42.1357 4.69897 38.6926 3.2813 36.6208 11.6949C35.0837 17.6814 34.5456 23.8919 35.0293 30.0629C34.7091 30.7615 34.3087 31.6039 33.7982 32.5593C32.2969 35.3843 30.4152 36.576 29.7346 34.6138C29.0736 32.567 28.8317 30.4021 29.024 28.2549C31.3562 24.5494 33.068 20.4695 34.0885 16.1841C35.6399 9.2499 35.3296 5.84954 34.5189 5.27426C33.7082 4.69897 30.2651 3.2813 28.2032 11.6949C26.1414 20.1084 25.731 29.2822 27.7028 35.446C27.7028 35.446 28.7838 38.9182 30.8056 38.6614C32.4771 38.4457 34.4688 36.7609 35.6399 33.6174C35.7723 34.2352 35.936 34.8456 36.1303 35.446C36.1303 35.446 37.2113 38.9182 39.2331 38.6614C40.6043 38.4868 42.2358 37.3054 43.3768 35.148C44.0874 37.028 45.6188 38.5792 47.5906 38.2299C50.263 37.7368 50.8134 36.2472 50.8134 36.2472C50.8134 36.2472 50.7634 38.6922 52.4749 38.6922C53.9963 38.6922 55.2074 37.7779 56.4084 35.446C56.8188 34.6549 57.059 34.1927 57.1891 33.9256C57.5395 36.1342 58.4303 38.0964 60.1918 38.8874C63.1945 40.2229 65.8169 37.6855 67.3582 35.1789C67.5558 35.7829 67.878 36.3361 68.303 36.8006C68.7279 37.2651 69.2455 37.63 69.8204 37.8704C70.4759 38.0818 71.1752 38.1045 71.8424 37.936C72.5095 37.7676 73.1188 37.4144 73.6038 36.915V40.5311C73.0551 40.5011 72.5114 40.6523 72.0524 40.9625C70.5201 42.253 69.3316 43.9212 68.5982 45.8112C67.8648 47.7013 67.6103 49.7513 67.8587 51.7697C67.9009 52.3158 68.0743 52.8426 68.3632 53.3032C68.6521 53.7638 69.0476 54.1438 69.5145 54.4093C69.9813 54.6749 70.5049 54.8176 71.0386 54.8249C71.5722 54.8321 72.0994 54.7037 72.5729 54.451C75.6757 53.0641 76.1461 48.2872 76.4063 45.3696C77.0369 38.3532 76.5464 31.0491 76.5464 24.0121C76.5464 22.7178 73.6439 23.3239 73.6439 24.382ZM30.2751 12.8763C30.9657 10.1539 31.6063 9.06498 32.2769 9.06498C32.9475 9.06498 33.2077 9.79436 32.7373 12.1469C31.8645 16.659 30.491 21.0536 28.6436 25.2449C28.6436 25.2449 29.5845 15.6089 30.2751 12.8763ZM38.7026 12.8763C39.3932 10.1539 40.0338 9.06498 40.6544 9.06498C41.2749 9.06498 41.5952 9.79436 41.1248 12.1469C40.6544 14.4994 39.123 21.0022 37.0311 25.2449C37.0311 25.2449 38.032 15.6089 38.7026 12.8763ZM51.5741 25.6866C51.4941 26.2825 51.1137 30.0937 50.5732 32.1483C50.0327 34.2029 49.6624 34.9323 48.041 35.6411C46.4195 36.35 45.5988 34.1824 45.5988 34.1824C44.4478 30.895 45.9891 28.0186 47.2703 26.0462C48.5514 24.0738 49.8426 23.8991 50.5832 23.9916C50.7568 24.036 50.9201 24.1152 51.0638 24.2244C51.2076 24.3337 51.3289 24.4709 51.4209 24.6284C51.513 24.7858 51.5739 24.9603 51.6001 25.1418C51.6264 25.3234 51.6176 25.5086 51.5741 25.6866ZM73.5638 44.178C73.6242 46.9398 73.0839 49.6807 71.9824 52.2012C71.2817 52.345 70.9815 52.0779 70.7413 50.9273C70.5761 49.8209 70.5761 48.6951 70.7413 47.5886C71.0686 45.5562 72.0479 43.6942 73.5237 42.298C73.5738 42.9452 73.5738 43.5719 73.5638 44.178Z"/>
<path d="M92.3806 21.4747C91.0788 20.8853 89.9035 20.0372 88.9227 18.9793C87.9418 17.9214 87.1746 16.6746 86.6655 15.3109C85.3843 11.3867 89.5881 8.4897 92.9411 8.66434C96.2941 8.83898 98.0857 12.3832 97.9456 15.5575C97.8855 16.6772 97.1949 19.2044 95.8437 17.8895C94.9501 16.8485 94.4032 15.5422 94.2823 14.1604C94.0821 12.9173 91.1795 13.657 91.3797 14.9617C91.9602 18.7216 95.9037 22.8616 99.2868 18.927C99.9789 18.0362 100.466 16.9962 100.711 15.8848C100.955 14.7735 100.952 13.6197 100.701 12.5099C100.45 11.4 99.9568 10.363 99.2595 9.47639C98.5622 8.5898 97.6784 7.87669 96.6744 7.39049C94.4096 6.48529 91.905 6.43566 89.6078 7.25044C87.3107 8.06522 85.3703 9.6914 84.1332 11.8387C81.4008 16.8211 86.8857 21.6905 90.7692 23.4677C97.0047 26.8886 97.2349 37.9012 88.9475 37.9731C87.245 37.933 85.5951 37.3594 84.2193 36.3293C82.8436 35.2991 81.8077 33.8617 81.2506 32.21C80.6801 30.4841 80.9704 24.4539 83.2524 23.9916C85.0641 23.632 84.5736 21.937 82.802 22.2555C79.0887 22.9951 77.7175 27.9159 78.0778 31.3573C78.6583 36.8431 83.6628 39.9147 88.7173 39.8736C90.9535 39.9395 93.1417 39.2 94.9022 37.7833C96.6628 36.3666 97.8847 34.3621 98.3559 32.1175C98.7278 29.9065 98.3339 27.6317 97.2424 25.6876C96.151 23.7436 94.4309 22.2531 92.3806 21.4747Z"/>
<path d="M110.977 37.7985C108.125 36.1959 109.756 30.0218 110.187 27.6488C110.467 26.1181 111.738 23.7553 109.696 23.2314C107.304 22.6356 104.461 24.9675 102.41 27.1968C102.408 24.6249 102.592 22.0565 102.96 19.5126C106.125 17.8918 108.659 15.2147 110.146 11.9209C111.448 9.2499 112.088 3.70249 107.684 5.32562C103.681 6.76384 102.309 11.4894 101.058 15.2801C100.586 16.7464 100.221 18.247 99.9674 19.7694C99.5682 19.9414 99.1606 20.0923 98.7463 20.2214C97.0848 20.7556 97.305 21.6699 98.9865 21.1357L99.7972 20.8686C98.9965 26.6318 99.537 32.6723 100.047 38.3327C100.047 38.8874 103.05 38.3327 102.94 37.5314C102.72 35.0042 102.53 32.4771 102.45 29.9705C102.691 29.8979 102.909 29.7595 103.08 29.5698C104.001 28.3831 105.034 27.2924 106.163 26.3133C106.463 26.0359 106.773 25.7791 107.084 25.5325L107.544 25.1833C108.215 24.6388 108.345 24.6285 107.924 25.1833C107.768 26.1629 107.56 27.1333 107.304 28.0905C106.753 31.1724 105.172 37.2232 108.645 39.1648C109.396 39.5551 112.098 38.4046 110.977 37.7985ZM104.481 13.0303C104.792 12.1161 105.202 11.212 105.582 10.3286C106.053 9.21908 107.314 5.42835 108.225 7.24667C108.955 8.69516 107.804 11.0682 107.294 12.4551C106.49 14.6234 105.102 16.5119 103.29 17.8997C103.582 16.2514 103.98 14.6248 104.481 13.0303Z"/>
<path d="M121.737 30.5971C121.737 27.2173 121.367 22.8821 117.433 22.5226C113.119 22.1219 111.428 26.755 111.368 30.217C111.361 30.3395 111.392 30.4611 111.454 30.5657C111.517 30.6702 111.609 30.7528 111.718 30.8026C111.718 34.0386 112.479 38.2607 116.232 38.1888C120.416 38.1272 121.737 34.3776 121.737 30.5971ZM116.732 36.2267C114.29 35.1994 114.51 30.8745 114.671 28.7891C114.685 28.6843 114.671 28.5773 114.628 28.4808C114.585 28.3843 114.517 28.3024 114.43 28.2446C114.731 26.19 115.511 23.1081 117.293 24.6388C118.714 25.8921 118.744 28.9021 118.814 30.6382C118.874 31.8504 118.724 36.9869 116.742 36.2267H116.732Z"/>
<path d="M153.265 49.1398C152.144 46.1812 149.682 45.0306 146.969 44.9074C146.667 44.1563 146.287 43.4401 145.838 42.7706C141.925 36.8225 132.637 37.6341 126.341 40.716C126.341 39.7812 126.251 38.8463 126.211 37.9115C127.463 38.0153 128.721 37.7863 129.862 37.2465C131.003 36.7067 131.99 35.8743 132.727 34.8296C134.398 32.3743 134.158 28.0186 133.497 25.2654C132.877 22.6767 130.415 23.1389 128.563 24.0019C127.882 24.333 127.254 24.7696 126.701 25.2963C126.701 24.608 126.811 23.9094 126.861 23.2417C126.972 21.6596 124.019 22.0603 123.919 23.4574C123.458 29.8164 123.619 36.1548 123.478 42.5035C121.702 44.0013 120.291 45.9041 119.358 48.0604C118.425 50.2166 117.996 52.5667 118.104 54.9235C118.104 57.2555 120.035 59.0327 122.107 57.3685C125 55.0879 125.881 50.5575 126.281 47.0955C126.445 45.5504 126.498 43.995 126.441 42.4419C128.698 40.9228 131.334 40.105 134.033 40.0868C136.732 40.0685 139.378 40.8507 141.655 42.3391C142.632 43.0474 143.415 44.0028 143.927 45.1128C142.326 45.4066 140.771 45.9179 139.303 46.6332C137.591 47.4756 135.049 49.4686 135.169 51.6978C135.149 52.4032 135.366 53.0941 135.784 53.655C136.201 54.216 136.793 54.613 137.461 54.7797C137.552 54.8272 137.65 54.8584 137.751 54.8721C143.897 55.8994 148.471 52.1703 147.59 46.9209C150.593 48.5954 151.704 52.4785 150.643 55.8173C148.251 63.3165 139.042 64.991 133.678 59.9778C133.097 59.4436 130.485 60.5736 130.945 61.0051C138.692 68.2681 157.989 61.5496 153.265 49.1398ZM123.298 47.3215C123.213 49.1354 122.827 50.9211 122.157 52.6018C121.907 53.1668 121.637 53.7113 121.346 54.2455C121.346 54.2455 121.086 54.3071 121.036 53.5058C121.032 50.6277 121.846 47.8109 123.378 45.4005C123.358 46.0374 123.338 46.6846 123.298 47.3215ZM126.431 28.974C126.489 28.9234 126.539 28.8646 126.581 28.7994C127.119 27.8692 127.757 27.0042 128.483 26.2208C129.007 25.6096 129.617 25.0831 130.294 24.6593C130.615 24.8237 130.945 25.6866 131.065 26.8475C131.375 29.7034 131.506 37.2232 127.122 36.5143C126.78 36.4987 126.438 36.5583 126.121 36.689C126.111 34.0797 126.251 31.532 126.431 28.974ZM139.523 53.362H139.463C137.781 52.9511 137.961 51.3074 138.182 50.1979C138.672 47.5989 141.755 46.2018 144.297 46.0888C145.588 49.787 144.597 54.2147 139.523 53.362Z"/>
</symbol><symbol id="icon-modal-cross" viewBox="0 0 18 17">
<path d="M18 1.4175L16.4885 0L8.99468 7.07747L1.50089 0L0 1.4175L7.49379 8.49497L0 15.5724L1.50089 17L8.99468 9.92253L16.4885 17L18 15.5724L10.5062 8.49497L18 1.4175Z"/>
</symbol><symbol id="icon-pag-arrow" viewBox="0 0 7 12">
<path d="M6.84111 5.65875L0.932395 0.148752C0.829699 0.05349 0.690626 0 0.545642 0C0.400659 0 0.261586 0.05349 0.15889 0.148752C0.108543 0.195234 0.0685817 0.250534 0.041311 0.311464C0.0140403 0.372393 0 0.437746 0 0.503752C0 0.569758 0.0140403 0.635111 0.041311 0.69604C0.0685817 0.75697 0.108543 0.812271 0.15889 0.858752L5.6916 5.99875L0.15889 11.1688C0.108543 11.2152 0.0685817 11.2705 0.041311 11.3315C0.0140403 11.3924 0 11.4577 0 11.5238C0 11.5898 0.0140403 11.6551 0.041311 11.716C0.0685817 11.777 0.108543 11.8323 0.15889 11.8788C0.266426 11.9636 0.404942 12.0065 0.545642 11.9988C0.616091 11.9996 0.68594 11.9866 0.750698 11.9608C0.815455 11.935 0.873688 11.8968 0.921651 11.8488L6.84111 6.36875C6.89146 6.32227 6.93142 6.26697 6.95869 6.20604C6.98596 6.14511 7 6.07976 7 6.01375C7 5.94775 6.98596 5.88239 6.95869 5.82146C6.93142 5.76053 6.89146 5.70523 6.84111 5.65875Z"/>
</symbol><symbol id="icon-pin" viewBox="0 0 80 140">
<path d="M40.148 7.01152C45.1544 7.01029 50.0732 8.31361 54.4116 10.7909C58.75 13.2682 62.3557 16.8325 64.8674 21.1267C67.3791 25.4209 68.7086 30.2942 68.7227 35.2583C68.7368 40.2224 67.435 45.103 64.9477 49.4112C66.6731 49.6555 68.2957 50.3714 69.6339 51.4786C70.972 52.5859 71.9727 54.0407 72.5239 55.6802C73.0751 57.3196 73.1549 59.0789 72.7545 60.7608C72.3541 62.4427 71.4893 63.9809 70.2569 65.2028C69.0245 66.4248 67.4733 67.2824 65.777 67.6794C64.0808 68.0764 62.3066 67.9972 60.6532 67.4507C58.9998 66.9042 57.5325 65.9119 56.4158 64.5851C55.2992 63.2582 54.5772 61.6493 54.3308 59.9385C53.9772 60.1388 53.6136 60.3291 53.2499 60.5194C52.7446 63.6039 51.149 66.4094 48.7486 68.4342C46.3481 70.4589 43.2994 71.5708 40.148 71.5708C36.9965 71.5708 33.9478 70.4589 31.5474 68.4342C29.1469 66.4094 27.5513 63.6039 27.046 60.5194C26.6824 60.3291 26.3187 60.1388 25.9651 59.9385C25.7193 61.6509 24.9971 63.2614 23.8794 64.5894C22.7618 65.9174 21.293 66.9102 19.6379 67.4564C17.9828 68.0027 16.2069 68.0807 14.5095 67.6817C12.8122 67.2827 11.2606 66.4226 10.0289 65.1978C8.79724 63.973 7.93419 62.432 7.53667 60.7479C7.13916 59.0637 7.2229 57.3031 7.7785 55.6635C8.3341 54.0239 9.33956 52.5704 10.682 51.466C12.0245 50.3615 13.6509 49.65 15.3785 49.4112C12.8925 45.1052 11.5908 40.2274 11.6035 35.2658C11.6163 30.3042 12.9431 25.433 15.4512 21.1397C17.9593 16.8464 21.5607 13.2816 25.8949 10.8022C30.2292 8.32271 35.1441 7.01555 40.148 7.01152ZM40.148 6.74204e-06C34.5387 -0.00342913 29.0078 1.30642 24.0055 3.82295C19.0032 6.33949 14.6708 9.99159 11.361 14.482C8.05108 18.9725 5.85724 24.1744 4.95798 29.6644C4.05873 35.1544 4.47946 40.7774 6.18595 46.0757C2.87887 48.6901 0.716325 52.4687 0.148666 56.6245C-0.418992 60.7804 0.65199 64.9932 3.13858 68.3857C5.62518 71.7781 9.33571 74.0887 13.4975 74.8363C17.6592 75.5839 21.9515 74.7108 25.4803 72.3989C27.3857 74.3596 29.6703 75.9192 32.1974 76.9844C34.7245 78.0496 37.4424 78.5986 40.1884 78.5986C42.9344 78.5986 45.6522 78.0496 48.1793 76.9844C50.7065 75.9192 52.9911 74.3596 54.8965 72.3989C58.4267 74.5771 62.6585 75.3467 66.7385 74.5526C70.8185 73.7584 74.4429 71.4596 76.8807 68.1198C79.3184 64.78 80.3881 60.6478 79.8739 56.5567C79.3597 52.4656 77.2999 48.7201 74.11 46.0757C75.8165 40.7774 76.2372 35.1544 75.3379 29.6644C74.4387 24.1744 72.2448 18.9725 68.935 14.482C65.6251 9.99159 61.2927 6.33949 56.2904 3.82295C51.2881 1.30642 45.7573 -0.00342913 40.148 6.74204e-06Z" fill="#E84D37"/>
<path d="M63.6143 78.9397C60.8327 78.9336 58.082 78.3608 55.5329 77.2569C55.1591 77.5574 54.7652 77.8279 54.3712 78.1083L54.9066 78.6292L50.9669 82.5356L49.2799 80.8628C48.5829 81.1333 47.8758 81.3737 47.1485 81.584L49.5325 83.9479L45.6029 87.8543L41.643 83.9479L43.2088 82.3954C42.2036 82.5225 41.1916 82.5894 40.1783 82.5957C39.1953 82.5935 38.2135 82.5299 37.2387 82.4054L38.7943 83.9479L34.8547 87.8543L30.915 83.9479L33.2788 81.6041C32.5597 81.3998 31.8516 81.1591 31.1574 80.8829L29.4603 82.5356L25.4803 78.6292L25.9752 78.1384C25.5611 77.8479 25.157 77.5674 24.763 77.2569C22.2139 78.3608 19.4633 78.9336 16.6816 78.9397C16.4796 78.9397 16.2776 78.9397 16.0755 78.9397C15.9989 79.4856 16.0543 80.0418 16.2372 80.5623L36.8245 137.776C36.8471 137.845 36.8741 137.912 36.9053 137.977C36.9328 138.046 36.9666 138.113 37.0063 138.177C37.077 138.317 37.1578 138.447 37.2387 138.578L37.3296 138.708C37.4539 138.873 37.5925 139.027 37.7438 139.169L37.8448 139.249L38.2387 139.549L38.4206 139.649C38.5604 139.726 38.7056 139.793 38.8549 139.85H38.9661L39.3701 139.95H39.5318C39.9059 140.017 40.289 140.017 40.6631 139.95H40.8349L41.2288 139.85H41.4006C41.5458 139.791 41.6875 139.724 41.8248 139.649L42.0067 139.539C42.1485 139.457 42.2806 139.36 42.4006 139.249L42.5118 139.169C42.6603 139.025 42.7987 138.871 42.9259 138.708L43.0067 138.578C43.0971 138.45 43.1781 138.316 43.2492 138.177L43.431 137.776L64.0588 80.5323C64.2464 80.0128 64.3019 79.4555 64.2204 78.9096C64.0183 78.9096 63.8668 78.9397 63.6143 78.9397ZM49.4719 94.5954L45.5322 98.5018L41.643 94.5954L45.5726 90.689L49.4719 94.5954ZM36.2487 99.9141L40.1884 96.0077L44.128 99.9141L40.1884 103.821L36.2487 99.9141ZM44.128 110.562L40.1884 114.468L36.2487 110.562L40.1884 106.655L44.128 110.562ZM40.1884 85.3703L44.128 89.2767L40.1884 93.153L36.2487 89.2466L40.1884 85.3703ZM38.764 94.5954L34.8244 98.5018L30.8847 94.5954L34.8244 90.689L38.764 94.5954ZM23.7023 80.4321L24.0862 80.0515L28.0259 83.9479L25.7732 86.1415L23.7023 80.4321ZM26.4904 88.275L29.4199 85.3703L33.3495 89.2767L29.4603 93.153L27.6521 91.3601L26.4904 88.275ZM29.3492 96.158L29.4603 96.0478L33.3899 99.9542L31.4201 101.957L29.3492 96.158ZM33.5616 107.927L32.1272 103.921L34.7839 101.296L38.7236 105.203L34.8244 109.179L33.5616 107.927ZM37.0265 117.563L35.1375 112.335L38.7236 115.88L37.0265 117.563ZM40.1076 126.137L37.7741 119.647L40.148 117.293L42.4613 119.586L40.1076 126.137ZM43.2189 117.503L41.643 115.88L45.0877 112.455L43.2189 117.503ZM46.6939 108.058L45.5524 109.179L41.643 105.233L45.5726 101.336L48.1687 103.901L46.6939 108.058ZM48.9365 101.817L47.0272 99.9141L50.9669 96.0077V96.0578L48.9365 101.817ZM52.6438 91.5103L50.9265 93.153L46.9868 89.2466L50.9265 85.3402L53.7651 88.2149L52.6438 91.5103ZM54.5429 86.1415L52.3508 83.9579L56.2905 80.0515L56.6138 80.372L54.5429 86.1415Z" fill="#E84D37"/>
</symbol><symbol id="icon-radio-actv" viewBox="0 0 22 22">
<path d="M11 3.52C12.4794 3.52 13.9256 3.95869 15.1557 4.78061C16.3857 5.60252 17.3445 6.77073 17.9106 8.13753C18.4768 9.50432 18.6249 11.0083 18.3363 12.4593C18.0477 13.9103 17.3353 15.2431 16.2892 16.2892C15.2431 17.3353 13.9103 18.0477 12.4593 18.3363C11.0083 18.6249 9.50432 18.4768 8.13753 17.9106C6.77074 17.3445 5.60252 16.3857 4.78061 15.1557C3.9587 13.9256 3.52 12.4794 3.52 11C3.52233 9.01689 4.31115 7.11568 5.71342 5.71341C7.11568 4.31115 9.0169 3.52233 11 3.52ZM11 0C8.82441 0 6.69767 0.645139 4.88873 1.85383C3.07979 3.06253 1.66989 4.78049 0.83733 6.79048C0.00476611 8.80047 -0.213071 11.0122 0.211367 13.146C0.635804 15.2798 1.68345 17.2398 3.22183 18.7782C4.76021 20.3165 6.72022 21.3642 8.85401 21.7886C10.9878 22.2131 13.1995 21.9952 15.2095 21.1627C17.2195 20.3301 18.9375 18.9202 20.1462 17.1113C21.3549 15.3023 22 13.1756 22 11C22 8.08262 20.8411 5.28472 18.7782 3.22182C16.7153 1.15893 13.9174 0 11 0V0Z" fill-opacity="0.8"/>
<path d="M11 14.96C13.1871 14.96 14.96 13.1871 14.96 11C14.96 8.81299 13.1871 7.04004 11 7.04004C8.81299 7.04004 7.04004 8.81299 7.04004 11C7.04004 13.1871 8.81299 14.96 11 14.96Z" fill-opacity="0.8"/>
</symbol><symbol id="icon-radio" viewBox="0 0 22 22">
<path d="M11 3.52C12.4794 3.52 13.9256 3.95869 15.1557 4.78061C16.3857 5.60252 17.3445 6.77073 17.9106 8.13753C18.4768 9.50432 18.6249 11.0083 18.3363 12.4593C18.0477 13.9103 17.3353 15.2431 16.2892 16.2892C15.2431 17.3353 13.9103 18.0477 12.4593 18.3363C11.0083 18.6249 9.50432 18.4768 8.13753 17.9106C6.77074 17.3445 5.60252 16.3857 4.78061 15.1557C3.9587 13.9256 3.52 12.4794 3.52 11C3.52233 9.01689 4.31115 7.11568 5.71342 5.71341C7.11568 4.31115 9.0169 3.52233 11 3.52ZM11 0C8.82441 0 6.69767 0.645139 4.88873 1.85383C3.07979 3.06253 1.66989 4.78049 0.83733 6.79048C0.00476611 8.80047 -0.213071 11.0122 0.211367 13.146C0.635804 15.2798 1.68345 17.2398 3.22183 18.7782C4.76021 20.3165 6.72022 21.3642 8.85401 21.7886C10.9878 22.2131 13.1995 21.9952 15.2095 21.1627C17.2195 20.3301 18.9375 18.9202 20.1462 17.1113C21.3549 15.3023 22 13.1756 22 11C22 8.08262 20.8411 5.28472 18.7782 3.22182C16.7153 1.15893 13.9174 0 11 0V0Z" fill-opacity="0.8"/>
</symbol><symbol id="icon-search" viewBox="0 0 16 16">
<path d="M16 14.6652L11.0785 9.73294C11.9827 8.48188 12.3826 6.93501 12.1984 5.40134C12.0141 3.86767 11.2594 2.4601 10.0848 1.45982C8.91022 0.45954 7.40233 -0.0598191 5.86234 0.00548954C4.32234 0.0707982 2.86363 0.715967 1.77757 1.81212C0.691516 2.90827 0.0580813 4.3747 0.0038002 5.91849C-0.050481 7.46228 0.478388 8.96976 1.48476 10.1398C2.49113 11.3098 3.90092 12.0563 5.43251 12.2301C6.96409 12.4039 8.50472 11.9922 9.74663 11.0772L14.6586 16L16 14.6652ZM6.08152 10.3767C5.24079 10.3767 4.41895 10.1268 3.71991 9.65874C3.02087 9.19063 2.47604 8.5253 2.15431 7.74687C1.83258 6.96844 1.7484 6.11188 1.91241 5.28551C2.07643 4.45913 2.48128 3.70006 3.07576 3.10427C3.67024 2.50849 4.42766 2.10276 5.25223 1.93838C6.0768 1.77401 6.93149 1.85837 7.70822 2.1808C8.48495 2.50324 9.14883 3.04927 9.61591 3.74983C10.083 4.4504 10.3323 5.27404 10.3323 6.11661C10.3298 7.24568 9.88115 8.3278 9.08451 9.12618C8.28788 9.92456 7.20813 10.3742 6.08152 10.3767Z"/>
</symbol><symbol id="icon-thermometer" viewBox="0 0 49 49">
<circle cx="24.5" cy="24.5" r="23.5" stroke="#323232" stroke-width="2"/>
<path d="M27.5905 15.1189C27.5905 14.0265 27.1691 12.9789 26.4189 12.2064C25.6688 11.434 24.6514 11 23.5905 11C22.5296 11 21.5122 11.434 20.7621 12.2064C20.0119 12.9789 19.5905 14.0265 19.5905 15.1189V27.1073C18.565 28.185 17.9936 29.6355 18.0001 31.1443C17.9973 32.1106 18.2275 33.0625 18.67 33.9146C19.1125 34.7667 19.7535 35.4924 20.5354 36.0266C21.3174 36.5608 22.2158 36.8868 23.1503 36.9754C24.0847 37.064 25.0259 36.9124 25.8894 36.5341C26.7529 36.1559 27.5117 35.5629 28.0979 34.8083C28.684 34.0536 29.0791 33.161 29.2477 32.2105C29.4163 31.2599 29.3531 30.2811 29.0639 29.3618C28.7747 28.4426 28.2684 27.6116 27.5905 26.9435V15.1189ZM27.7336 31.1443C27.7417 31.8589 27.5722 32.5637 27.2413 33.1919C26.9104 33.82 26.4291 34.3507 25.8431 34.7334C25.257 35.1162 24.5857 35.3383 23.8929 35.3788C23.2 35.4192 22.5086 35.2767 21.8843 34.9646C21.26 34.6525 20.7235 34.1813 20.3258 33.5957C19.928 33.0101 19.6823 32.3295 19.6118 31.6186C19.5414 30.9077 19.6485 30.19 19.9232 29.5337C20.1978 28.8774 20.6308 28.3043 21.181 27.8688V15.1189C21.181 14.4609 21.4348 13.8298 21.8867 13.3645C22.3386 12.8992 22.9514 12.6377 23.5905 12.6377C24.2295 12.6377 24.8424 12.8992 25.2943 13.3645C25.7462 13.8298 26 14.4609 26 15.1189V27.7132C26.5367 28.0983 26.9748 28.6116 27.2767 29.2092C27.5786 29.8067 27.7354 30.4707 27.7336 31.1443Z" fill="#323232"/>
<path d="M24.4573 28.5812V15.1763C24.4573 14.9591 24.3735 14.7508 24.2244 14.5972C24.0752 14.4437 23.873 14.3574 23.6621 14.3574C23.4512 14.3574 23.2489 14.4437 23.0998 14.5972C22.9506 14.7508 22.8668 14.9591 22.8668 15.1763V28.5812C22.3363 28.7744 21.8891 29.1545 21.6043 29.6544C21.3196 30.1542 21.2156 30.7416 21.3107 31.3128C21.4059 31.8839 21.6941 32.4021 22.1244 32.7756C22.5546 33.1491 23.0993 33.354 23.6621 33.354C24.2248 33.354 24.7695 33.1491 25.1998 32.7756C25.63 32.4021 25.9182 31.8839 26.0134 31.3128C26.1085 30.7416 26.0046 30.1542 25.7198 29.6544C25.4351 29.1545 24.9879 28.7744 24.4573 28.5812Z" fill="#323232"/>
<path d="M34 14.2018H29.2286V15.8395H34V14.2018Z" fill="#323232"/>
<path d="M34 17.4773H29.2286V19.115H34V17.4773Z" fill="#323232"/>
<path d="M34 20.7528H29.2286V22.3905H34V20.7528Z" fill="#323232"/>
<path d="M34 24.0283H29.2286V25.666H34V24.0283Z" fill="#323232"/>
</symbol><symbol id="icon-toggle-hvr" viewBox="0 0 22 25">
<path opacity="0.3" d="M11 22.7272C8.08262 22.7272 5.28473 21.5299 3.22183 19.3988C1.15893 17.2677 0 14.3773 0 11.3635L0 13.6363C0 16.6501 1.15893 19.5405 3.22183 21.6716C5.28473 23.8027 8.08262 24.9999 11 24.9999C13.9174 24.9999 16.7153 23.8027 18.7782 21.6716C20.8411 19.5405 22 16.6501 22 13.6363V11.3635C22 14.3773 20.8411 17.2677 18.7782 19.3988C16.7153 21.5299 13.9174 22.7272 11 22.7272Z" fill="#ABABAB"/>
<path d="M11 22.7273C17.0751 22.7273 22 17.6396 22 11.3636C22 5.08767 17.0751 0 11 0C4.92487 0 0 5.08767 0 11.3636C0 17.6396 4.92487 22.7273 11 22.7273Z" fill="white"/>
<path d="M10.9998 13.6363C12.2148 13.6363 13.1998 12.6187 13.1998 11.3635C13.1998 10.1084 12.2148 9.09082 10.9998 9.09082C9.78478 9.09082 8.7998 10.1084 8.7998 11.3635C8.7998 12.6187 9.78478 13.6363 10.9998 13.6363Z" fill="#ABABAB"/>
</symbol><symbol id="icon-toggle" viewBox="0 0 20 22">
<path opacity="0.3" d="M10 20C7.34784 20 4.8043 18.9464 2.92893 17.0711C1.05357 15.1957 0 12.6522 0 10L0 12C0 14.6522 1.05357 17.1957 2.92893 19.0711C4.8043 20.9464 7.34784 22 10 22C12.6522 22 15.1957 20.9464 17.0711 19.0711C18.9464 17.1957 20 14.6522 20 12V10C20 12.6522 18.9464 15.1957 17.0711 17.0711C15.1957 18.9464 12.6522 20 10 20Z" fill="#ABABAB"/>
<path d="M10 20C15.5228 20 20 15.5228 20 10C20 4.47715 15.5228 0 10 0C4.47715 0 0 4.47715 0 10C0 15.5228 4.47715 20 10 20Z" fill="white"/>
<path d="M10 12C11.1046 12 12 11.1046 12 10C12 8.89543 11.1046 8 10 8C8.89543 8 8 8.89543 8 10C8 11.1046 8.89543 12 10 12Z" fill="#ABABAB"/>
</symbol><symbol id="icon-twitter" viewBox="0 0 32 32">
<path d="M16 0C12.8355 0 9.74207 0.938384 7.11088 2.69649C4.4797 4.45459 2.42894 6.95345 1.21793 9.87706C0.0069325 12.8007 -0.309921 16.0177 0.307443 19.1214C0.924806 22.2251 2.44866 25.0761 4.6863 27.3137C6.92394 29.5513 9.77487 31.0752 12.8786 31.6926C15.9823 32.3099 19.1993 31.9931 22.1229 30.7821C25.0466 29.5711 27.5454 27.5203 29.3035 24.8891C31.0616 22.2579 32 19.1645 32 16C32 11.7565 30.3143 7.68687 27.3137 4.68629C24.3131 1.68571 20.2435 0 16 0ZM23.94 12.81C23.69 19.33 20.48 23.64 12.94 23.51H12.46C12.01 23.51 7.91001 23.07 7.11001 21.69C8.8989 21.9555 10.7228 21.5494 12.23 20.55C11.18 20.26 9.31001 20.09 8.98001 17.7C9.39279 17.8642 9.84415 17.9058 10.28 17.82C9.00001 17 7.53001 16.3 7.61001 14.17C8.02796 14.4893 8.54454 14.652 9.07001 14.63C8.30001 14.4 6.92001 11.39 8.07001 9.85C10.07 11.64 12.14 13.33 15.87 13.49C16.1 11.28 17.11 9.79 19.04 9.17C19.7375 8.93332 20.4908 8.91568 21.1986 9.11946C21.9065 9.32323 22.5351 9.73867 23 10.31C23.74 10.08 24.45 9.84 25.19 9.62C25.1758 9.95711 25.0846 10.2865 24.9234 10.5829C24.7622 10.8793 24.5353 11.1349 24.26 11.33C24.5167 11.3601 24.7768 11.3336 25.0221 11.2524C25.2674 11.1712 25.492 11.0372 25.68 10.86C25.5628 11.2985 25.3443 11.7034 25.0421 12.0421C24.7399 12.3808 24.3624 12.6438 23.94 12.81Z"/>
</symbol><symbol id="icon-vk" viewBox="0 0 32 32">
<path d="M16.64 14.49C16.9652 14.4904 17.2875 14.4293 17.59 14.31C17.8645 14.2077 18.0922 14.0085 18.23 13.75C18.3343 13.4964 18.3854 13.2241 18.38 12.95C18.376 12.7057 18.3143 12.4659 18.2 12.25C18.0714 12.0066 17.8523 11.8235 17.59 11.74C17.2687 11.627 16.9306 11.5695 16.59 11.57H14.59V14.57H15.16C15.75 14.52 16.24 14.51 16.64 14.49Z"/>
<path d="M18.12 17.08C17.751 17.0101 17.3752 16.9832 17 17H14.61V20.5H17.06C17.4757 20.4953 17.8865 20.4104 18.27 20.25C18.591 20.1392 18.8632 19.9199 19.04 19.63C19.1865 19.3527 19.2621 19.0436 19.26 18.73C19.2753 18.3782 19.1848 18.0298 19 17.73C18.7922 17.4167 18.4806 17.1865 18.12 17.08Z"/>
<path d="M16 0C12.8355 0 9.74207 0.938384 7.11088 2.69649C4.4797 4.45459 2.42894 6.95345 1.21793 9.87706C0.0069325 12.8007 -0.309921 16.0177 0.307443 19.1214C0.924806 22.2251 2.44866 25.0761 4.6863 27.3137C6.92394 29.5513 9.77487 31.0752 12.8786 31.6926C15.9823 32.3099 19.1993 31.9931 22.1229 30.7821C25.0466 29.5711 27.5454 27.5203 29.3035 24.8891C31.0616 22.2579 32 19.1645 32 16C32 11.7565 30.3143 7.68687 27.3137 4.68629C24.3131 1.68571 20.2435 0 16 0ZM22.6 20.53C22.3376 21.056 21.9537 21.5119 21.48 21.86C20.9342 22.2714 20.3122 22.5705 19.65 22.74C18.8286 22.9383 17.9848 23.029 17.14 23.01H11V9H16.45C17.2781 8.9868 18.1063 9.02354 18.93 9.11C19.473 9.19401 19.9994 9.36273 20.49 9.61C20.9868 9.84615 21.4013 10.2258 21.68 10.7C21.9455 11.1728 22.0801 11.7079 22.07 12.25C22.0819 12.8916 21.8931 13.5209 21.53 14.05C21.1452 14.588 20.6142 15.0045 20 15.25V15.32C20.8272 15.4588 21.5898 15.8541 22.18 16.45C22.7295 17.0712 23.0163 17.8815 22.98 18.71C23.0043 19.3386 22.8738 19.9636 22.6 20.53Z"/>
</symbol></svg>